<?xml version="1.0" encoding="utf-8"?>
<!-- Generator: Adobe Illustrator 22.0.1, SVG Export Plug-In . SVG Version: 6.00 Build 0)  -->
<svg version="1.1" id="Capa_1" xmlns="http://www.w3.org/2000/svg" xmlns:xlink="http://www.w3.org/1999/xlink" x="0px" y="0px"
	 viewBox="0 0 21 21" style="enable-background:new 0 0 21 21;" xml:space="preserve">
<style type="text/css">
	.st0{fill:#BFC2C7;}
</style>
<g>
	<g>
		<path class="st0" d="M4.8,6.8c-0.5,0-1,0.4-1,1s0.4,1,1,1s1-0.4,1-1S5.4,6.8,4.8,6.8z"/>
	</g>
</g>
<g>
	<g>
		<path class="st0" d="M5.9,8.7C5.6,9,5.3,9.2,4.8,9.2S4,9,3.8,8.7C3.5,9,3.4,9.3,3.4,9.7v0.2c0,0.1,0.1,0.2,0.2,0.2H6
			c0.1,0,0.2-0.1,0.2-0.2V9.7C6.3,9.3,6.1,9,5.9,8.7z"/>
	</g>
</g>
<g>
	<g>
		<path class="st0" d="M2.8,14.1l-1.2-2.4c-0.1-0.2-0.4-0.3-0.6-0.2l-0.3,0.2c-0.1,0.1-0.2,0.2-0.1,0.3L2,14.8
			c0.1,0.1,0.2,0.2,0.3,0.1l0.3-0.2C2.9,14.6,2.9,14.3,2.8,14.1z"/>
	</g>
</g>
<g>
	<g>
		<path class="st0" d="M8.5,10.7c-0.2-0.1-0.5-0.1-0.6,0.1l-1.3,1.6c-0.1,0.1-0.3,0.2-0.4,0.2H5.1c-0.1,0-0.2-0.1-0.2-0.2
			S4.9,12,5.1,12c0.3,0,0.7,0,1,0c0.3,0,0.5-0.2,0.5-0.5S6.3,11.1,6,11.1c-1.1,0-0.1,0-1.2,0c-0.1,0-0.2-0.1-0.3-0.2
			c-0.4-0.3-0.9-0.5-1.5-0.4c-0.3,0.1-0.5,0.2-0.7,0.4l0,0l-0.3,0.3l1.4,2.7h0.4H6c0.4,0,0.9-0.2,1.1-0.6l1.4-2
			C8.7,11.2,8.7,10.9,8.5,10.7z"/>
	</g>
</g>
</svg>
